<?xml version="1.0" encoding="iso-8859-1"?>
<!-- Generator: Adobe Illustrator 19.1.1, SVG Export Plug-In . SVG Version: 6.00 Build 0)  -->
<svg xmlns="http://www.w3.org/2000/svg" xmlns:xlink="http://www.w3.org/1999/xlink" version="1.1" id="Layer_1" x="0px" y="0px" viewBox="0 0 48 48" style="enable-background:new 0 0 48 48;" xml:space="preserve" width="96px" height="96px">
<polygon style="fill:#78909C;" points="29,31 19,31 17,44 31,44 "/>
<polygon style="fill:#FF9800;" points="24,37 19,31 19,25 29,25 29,31 "/>
<path style="fill:#FFA726;" d="M35,19c0,1.105-0.896,2-2,2c-1.106,0-2-0.895-2-2s0.894-2,2-2C34.104,17,35,17.895,35,19 M17,19  c0-1.105-0.896-2-2-2c-1.106,0-2,0.895-2,2s0.894,2,2,2C16.104,21,17,20.105,17,19"/>
<path style="fill:#FFB74D;" d="M33,13c0-7.635-18-4.971-18,0v7c0,4.971,4.028,9,9,9c4.971,0,9-4.029,9-9V13z"/>
<path style="fill:#784719;" d="M27,19c0-0.551,0.448-1,1-1s1,0.449,1,1s-0.448,1-1,1S27,19.551,27,19 M19,19c0,0.551,0.448,1,1,1  s1-0.449,1-1s-0.448-1-1-1S19,18.449,19,19"/>
<path style="fill:#FFFFFF;" d="M24,41c-5-4-5-10-5-10l5,1l5-1C29,31,28.917,37.167,24,41z"/>
<polygon style="fill:#D32F2F;" points="23,35 22.333,39.465 24,42 25.667,39.465 25,35 26,34 24,32 22,34 "/>
<g>
	<path style="fill:#37474F;" d="M8,44h11V31C19,31,8,32.986,8,44z"/>
	<path style="fill:#37474F;" d="M29,31v13h11C40,33.025,29,31,29,31z"/>
</g>
<g>
	<path style="fill:#FFC107;" d="M29,31c0,0-0.083,6.167-5,10c-5-4-5-10-5-10v7.098c0.844,1.529,2.039,3.095,3.751,4.464l1.233,0.987   l1.246-0.971c1.72-1.341,2.923-2.917,3.77-4.468V31z"/>
</g>
<line style="fill:#37474F;" x1="24" y1="43" x2="23.999" y2="42.998"/>
<path style="fill:#455A64;" d="M28,17c-1.302,0-2.401,0.839-2.816,2h-2.369c-0.414-1.161-1.514-2-2.816-2c-1.654,0-3,1.346-3,3  c0,1.654,1.346,3,3,3s3-1.346,3-3h2c0,1.654,1.346,3,3,3c1.654,0,3-1.346,3-3C31,18.346,29.654,17,28,17z M20,22  c-1.104,0-2-0.898-2-2c0-1.102,0.896-2,2-2s2,0.898,2,2C22,21.102,21.104,22,20,22z M28,22c-1.104,0-2-0.898-2-2  c0-1.102,0.896-2,2-2c1.104,0,2,0.898,2,2C30,21.102,29.104,22,28,22z"/>
<polygon style="fill:#F57F17;" points="20,16 19,16 19,12.191 21,13.191 21,11 22,11 22,14.809 20,13.809 "/>
<path style="fill:#424242;" d="M24,4c6.075,0,10,4.926,10,11v2.285L32,19v-5l-12-4l-4,4v5l-2-1.742V15c0-4.025,1.038-8.016,6-9l1-2  H24z"/>
</svg>
